<svg width="525" height="142" viewBox="0 0 525 142" fill="none" xmlns="http://www.w3.org/2000/svg">
<g clip-path="url(#clip0_195_910)">
<path d="M101.26 9.43005H72.14L26.34 66.9701V9.43005H0V135.12H26.34V99.0401L44.94 76.6201L61.66 106H89.7L63.1 58.1101L101.26 9.43005Z" fill="white"/>
<path d="M92.3401 135.11L137.28 9.43005H164.14L209.08 135.11H183.79L173.53 105.99H128.25L117.82 135.11H92.3501H92.3401ZM133.97 83.8301H167.35L150.75 33.8501L133.97 83.8301Z" fill="white"/>
<path d="M278.17 136.85C266.55 140.83 256.61 142.07 248.35 140.58C240.09 139.09 233.19 135.31 227.66 129.24C222.12 123.17 217.67 115.2 214.29 105.34L189.39 32.56L213.81 24.2L239.33 98.79C242.37 107.67 246.73 113.42 252.4 116.04C258.07 118.66 264.34 118.8 271.19 116.46C275.74 114.9 279.47 112.63 282.36 109.65C285.26 106.67 287.07 102.96 287.78 98.52C288.5 94.08 287.83 88.87 285.79 82.9L260.27 8.31001L284.53 0.0100098L309.71 73.61C312.99 83.2 314.28 92.06 313.56 100.17C312.84 108.29 309.64 115.44 303.96 121.64C298.27 127.84 289.67 132.91 278.16 136.85H278.17Z" fill="white"/>
<path d="M323.79 135.11V9.43005H370.03C379.19 9.43005 387.38 11.0101 394.63 14.1701C401.87 17.3301 407.59 21.9801 411.8 28.1201C416 34.2601 418.1 41.7701 418.1 50.6301C418.1 58.9701 416.25 66.1001 412.54 72.0101C408.83 77.9201 403.63 82.4601 396.94 85.6101C390.25 88.7701 382.38 90.3501 373.34 90.3501H349.35V135.11H323.8H323.79ZM349.08 70.6201H372.63C379 70.6201 384.22 68.5801 388.28 64.4901C392.34 60.4101 394.36 55.3501 394.36 49.3201C394.36 43.2901 392.22 38.0901 387.93 34.4101C383.64 30.7301 378.43 28.8901 372.28 28.8901H349.07V70.6101L349.08 70.6201Z" fill="white"/>
<path d="M479.71 9.43005H452.85L412.03 123.6H437.51L443.81 106H489.1L499.35 135.12H524.65L479.71 9.43005ZM449.55 83.8301L466.32 33.8601L482.93 83.8301H449.55Z" fill="white"/>
</g>
<defs>
<clipPath id="clip0_195_910">
<rect width="524.65" height="141.19" fill="white"/>
</clipPath>
</defs>
</svg>
