<svg width="185" height="181" viewBox="0 0 185 181" fill="none" xmlns="http://www.w3.org/2000/svg">
<path d="M121.942 165.045C108.861 169.526 97.6717 170.921 88.3732 169.244C79.0746 167.567 71.3071 163.312 65.0818 156.478C58.8452 149.645 53.8357 140.673 50.0307 129.573L22 47.6426L49.4904 38.2315L78.2191 122.2C81.6413 132.196 86.5495 138.669 92.9324 141.619C99.3153 144.568 106.374 144.726 114.085 142.091C119.207 140.335 123.406 137.78 126.659 134.425C129.924 131.071 131.961 126.894 132.761 121.896C133.571 116.898 132.817 111.033 130.521 104.312L101.792 20.3436L129.102 11L157.448 93.8539C161.14 104.65 162.593 114.624 161.782 123.753C160.972 132.894 157.369 140.943 150.975 147.923C144.57 154.902 134.888 160.61 121.931 165.045H121.942Z" fill="white"/>
</svg>
